<svg xmlns="http://www.w3.org/2000/svg" width="1672" height="941" viewBox="0 0 1672 941"><defs><linearGradient id="b" x1="0" x2="1"><stop stop-color="#2563eb"/><stop offset="1" stop-color="#7c3aed"/></linearGradient><linearGradient id="g" x1="0" x2="1"><stop stop-color="#06b6d4"/><stop offset="1" stop-color="#10b981"/></linearGradient><filter id="s"><feDropShadow dx="0" dy="8" stdDeviation="12" flood-color="#1e40af" flood-opacity=".14"/></filter><style>.bg{fill:#f8fbff}.t{font:900 66px system-ui,sans-serif;fill:#0f172a}.a{fill:url(#b)}.sub{font:700 29px system-ui,sans-serif;fill:#334155}.card{fill:#fff;stroke:#bfdbfe;stroke-width:2;filter:url(#s)}.h{font:800 28px system-ui,sans-serif;fill:#fff}.body{font:700 24px system-ui,sans-serif;fill:#0f172a}.sm{font:500 19px system-ui,sans-serif;fill:#475569}.pill{fill:url(#b)}.pillg{fill:url(#g)}.arrow{stroke:#0ea5e9;stroke-width:10;stroke-linecap:round;marker-end:url(#ar)}}</style><marker id="ar" markerWidth="12" markerHeight="12" refX="9" refY="3" orient="auto"><path d="M0,0 L0,6 L9,3 z" fill="#0ea5e9"/></marker></defs><rect class="bg" width="1672" height="941"/><text x="70" y="86" class="t">止まった開発を、</text><text x="610" y="86" class="t a">AIエージェント</text><text x="1090" y="86" class="t">が自動で引き継ぐ。</text><text x="228" y="134" class="sub">GitHub監視 / 初期設定 / ブラウザ操作 / ローカル操作 / Notion・Google To Do連携 / 本番実行までを自動化</text><rect x="28" y="158" width="250" height="560" rx="24" class="card"/><rect x="42" y="174" width="222" height="44" rx="22" class="pill"/><text x="78" y="205" class="h">1. 検出</text><text x="64" y="252" class="body">GitHubリポジトリ監視</text><rect x="44" y="270" width="218" height="170" rx="14" fill="#f8fafc" stroke="#dbeafe"/><text x="66" y="312" class="sm">Repositories 12</text><text x="66" y="350" class="sm">awesome-project ★128</text><text x="66" y="388" class="sm">demo-app ★42</text><text x="66" y="426" class="sm">internal-tool ★17</text><text x="66" y="496" class="body">未完了 Issue 8</text><text x="66" y="556" class="body">放置 PR 5</text><text x="66" y="616" class="body">初期設定待ち 3</text><text x="66" y="676" class="body">README 未整備</text><path d="M286 438 H328" class="arrow"/><rect x="330" y="158" width="438" height="560" rx="24" class="card"/><rect x="390" y="174" width="318" height="44" rx="22" class="pill"/><text x="434" y="205" class="h">2. 判断・分配</text><circle cx="550" cy="410" r="142" fill="url(#b)" opacity=".18"/><circle cx="550" cy="410" r="118" fill="url(#b)"/><text x="424" y="382" class="h">AI自動引き継ぎハブ</text><text x="476" y="424" class="h">タスク理解</text><text x="476" y="464" class="h">優先度付け</text><text x="476" y="504" class="h">担当AIへ割当</text><rect x="366" y="594" width="124" height="96" rx="14" fill="#ecfdf5" stroke="#99f6e4"/><text x="390" y="635" class="body" fill="#047857">Codex</text><text x="383" y="670" class="sm">実装/修正</text><rect x="506" y="594" width="138" height="96" rx="14" fill="#fff7ed" stroke="#fed7aa"/><text x="526" y="635" class="body" fill="#ea580c">Claude Code</text><text x="524" y="670" class="sm">設計/文書化</text><rect x="660" y="594" width="94" height="96" rx="14" fill="#eff6ff" stroke="#bfdbfe"/><text x="674" y="635" class="body" fill="#2563eb">Gemini</text><text x="674" y="670" class="sm">調査/QA</text><path d="M776 438 H816" class="arrow"/><rect x="820" y="158" width="262" height="560" rx="24" class="card"/><rect x="850" y="174" width="202" height="44" rx="22" class="pillg"/><text x="884" y="205" class="h">3. 自動実行</text><text x="860" y="300" class="body">API設定</text><text x="860" y="370" class="body">ブラウザ操作</text><text x="860" y="440" class="body">ローカルファイル操作</text><text x="860" y="510" class="body">Secrets / 環境変数</text><text x="860" y="580" class="body">CI/CD 実行</text><text x="860" y="650" class="body">デプロイ準備</text><path d="M1090 438 H1130" class="arrow"/><rect x="1140" y="158" width="270" height="560" rx="24" class="card"/><rect x="1164" y="174" width="222" height="44" rx="22" class="pill"/><text x="1194" y="205" class="h">4. 進捗連携・可視化</text><text x="1188" y="300" class="body">Notion連携</text><text x="1188" y="360" class="sm">タスク生成・進捗更新・ログ保存</text><text x="1188" y="430" class="body">Google To Do連携</text><text x="1188" y="490" class="sm">未完了タスクを自動反映</text><text x="1188" y="560" class="body">引き継ぎメモ</text><text x="1188" y="620" class="sm">次のAIがすぐ再開可能</text><path d="M1418 438 H1458" class="arrow"/><rect x="1466" y="158" width="178" height="560" rx="24" class="card"/><rect x="1490" y="174" width="130" height="44" rx="22" class="pillg"/><text x="1520" y="205" class="h">5. 完了</text><text x="1510" y="360" font-size="96">🚀</text><text x="1498" y="510" class="body">✓ ビルド完了</text><text x="1498" y="560" class="body">✓ テスト完了</text><text x="1498" y="610" class="body">✓ 本番準備完了</text><text x="1498" y="690" class="body">人間は最後の</text><text x="1498" y="728" class="body">最小作業だけ</text><rect x="28" y="748" width="1616" height="160" rx="22" class="card"/><text x="110" y="820" class="body" fill="#2563eb">中途半端なリポジトリを自動検出</text><text x="520" y="820" class="body" fill="#7c3aed">初期設定をAIが代行</text><text x="920" y="820" class="body" fill="#0f766e">進捗を自動で同期</text><text x="1280" y="820" class="body" fill="#2563eb">AI同士で引き継ぎ可能</text></svg>
